<svg width="438" height="418" viewBox="0 0 438 418" fill="none" xmlns="http://www.w3.org/2000/svg">
<g clip-path="url(#clip0_0_1385)">
<path d="M120.912 391.5C103.412 392.2 88.112 394.7 97.312 397.1C106.512 399.6 67.612 401.3 65.812 410.1C64.112 418.9 126.212 419.6 164.712 413.6C203.212 407.6 207.112 402.7 230.812 401.3C254.412 399.9 285.912 386.5 261.412 382.6C242.712 379.6 189.212 383 171.712 387.9C154.212 392.8 120.912 391.5 120.912 391.5Z" fill="#99ADF9"/>
<path d="M137.412 394.4C124.612 394.9 113.512 396.7 120.212 398.5C126.912 400.3 98.5121 401.6 97.2121 408C95.9121 414.4 141.212 414.9 169.312 410.6C197.412 406.3 200.212 402.6 217.512 401.6C234.712 400.6 257.712 390.8 239.812 388C226.212 385.8 187.212 388.3 174.412 391.9C161.612 395.4 137.412 394.4 137.412 394.4Z" fill="#8EA6F4"/>
<path d="M279.412 389.5H437.012L383.212 404.8L279.412 389.5Z" fill="#E1EAF6"/>
<path d="M275.71 10.1C269.71 -1.10001 250.71 -2.30001 250.91 16.6C251.11 35.5 257.41 40.1 266.21 40.4C275.51 40.7 282.41 22.7 275.71 10.1Z" fill="#1C3177"/>
<path d="M255.21 5.90001C252.51 8.80001 250.21 14.1 254.01 14.6C256.81 15 262.01 7.00001 261.61 5.10001C261.11 2.90001 258.31 2.60001 255.21 5.90001Z" fill="#485B95"/>
<path d="M244.412 12.7C234.712 14.7 231.512 31.8 237.712 42.4C243.912 53 254.312 48.9 256.712 42.7C259.112 36.5 254.012 10.7 244.412 12.7Z" fill="#1C3177"/>
<path d="M239.012 17.6C236.912 20.4 235.512 25.2 238.812 25.3C241.312 25.4 245.012 17.9 244.512 16.3C243.912 14.4 241.412 14.4 239.012 17.6Z" fill="#485B95"/>
<path d="M240.212 63.8C240.212 63.8 233.912 65 234.912 73.9C235.912 82.9 242.412 84.9 242.412 84.9C242.412 84.9 239.412 72.9 240.212 63.8Z" fill="#F48B77"/>
<path d="M261.311 123.8C262.685 124.296 264.173 124.38 265.594 124.043C267.015 123.705 268.307 122.961 269.311 121.9L271.511 115L275.411 102.7C267.111 102 259.911 101.6 259.911 101.6L259.311 106.9L258.211 116.8C258.211 116.8 256.311 122.2 261.311 123.8Z" fill="#F7A491"/>
<path d="M259.312 106.9C260.112 107.8 261.112 108.8 262.112 109.8C264.896 112.101 268.083 113.864 271.512 115L275.412 102.7C267.112 102 259.912 101.6 259.912 101.6L259.312 106.9Z" fill="#F48B77"/>
<path d="M270.449 32.2203C253.843 31.4889 239.656 47.3549 238.761 67.6581C237.867 87.9613 250.605 105.013 267.211 105.745C283.818 106.476 298.005 90.61 298.899 70.3068C299.793 50.0036 287.056 32.9517 270.449 32.2203Z" fill="#F7A491"/>
<path d="M258.412 103.7C261.224 104.927 264.245 105.606 267.312 105.7C283.912 106.4 298.112 90.6 299.012 70.3C299.912 50.2 287.412 33.3 271.112 32.3C283.112 37.5 291.412 51.8 290.712 68.3C289.812 88.6 275.612 104.4 259.012 103.7H258.412Z" fill="#F48B77"/>
<path d="M292.312 85.6C295.532 76.7732 295.673 67.1171 292.712 58.2C287.712 43.5 282.112 39.5 267.512 39.1C252.912 38.7 246.012 45.5 246.012 45.5C246.012 45.5 250.612 35.4 264.612 30.5C278.612 25.6 298.312 30.6 305.712 50.4C313.612 71.5 305.212 83.6 292.312 85.6Z" fill="#1C3177"/>
<path d="M261.211 60.399C263.311 60.299 265.311 66.899 264.111 73.799C262.911 80.699 257.411 81.899 254.411 78.199C251.311 74.599 253.911 60.799 261.211 60.399Z" fill="#F26F59"/>
<path d="M299.312 68.2C299.312 68.2 312.012 71.8 308.412 82.9C305.012 93.6 291.012 89.4 291.012 89.4C291.012 89.4 300.012 75.8 299.312 68.2Z" fill="#F48B77"/>
<path d="M300.912 73.5C300.912 73.5 308.012 75.5 306.012 81.8C304.112 87.8 296.212 85.5 296.212 85.5C296.212 85.5 301.312 77.7 300.912 73.5Z" fill="#F26F59"/>
<path d="M245.312 49.8H245.112C244.926 49.8495 244.753 49.9359 244.601 50.0541C244.449 50.1722 244.323 50.3197 244.23 50.4877C244.137 50.6557 244.078 50.8407 244.058 51.0318C244.038 51.2229 244.056 51.4162 244.112 51.6C245.396 53.6886 246.942 55.6041 248.712 57.3C250.22 58.9077 251.897 60.3493 253.712 61.6C253.896 61.656 254.089 61.6745 254.28 61.6542C254.471 61.634 254.656 61.5754 254.824 61.4821C254.992 61.3888 255.14 61.2626 255.258 61.111C255.376 60.9595 255.462 60.7856 255.512 60.6C255.712 59.8 255.112 59.3 254.312 58.6C254.312 58.6 253.312 57.4 251.012 55C248.612 52.6 247.012 50.7 247.012 50.7C246.838 50.4093 246.587 50.1718 246.287 50.0132C245.988 49.8545 245.65 49.7808 245.312 49.8Z" fill="#283575"/>
<path d="M254.212 50.0999C254.312 50.0999 254.312 50.0999 254.312 50.1999C254.487 50.2738 254.645 50.3827 254.776 50.52C254.907 50.6573 255.008 50.8201 255.074 50.9982C255.14 51.1763 255.168 51.366 255.157 51.5555C255.147 51.745 255.097 51.9303 255.012 52.0999C253.653 54.1334 251.963 55.9249 250.012 57.3999C248.302 58.8513 246.38 60.0317 244.312 60.8999C244.128 60.9306 243.939 60.9236 243.757 60.8792C243.576 60.8349 243.405 60.7542 243.255 60.6421C243.106 60.5299 242.981 60.3886 242.887 60.2267C242.794 60.0647 242.734 59.8856 242.712 59.6999C242.612 58.8999 243.112 58.6999 243.912 58.0999C243.912 58.0999 245.312 56.9999 247.912 54.8999C249.484 53.685 250.986 52.383 252.412 50.9999C253.012 50.2999 253.512 49.8999 254.212 50.0999Z" fill="#283575"/>
<path d="M270.712 50.9H270.512C270.3 50.9455 270.101 51.0359 269.927 51.1652C269.754 51.2944 269.61 51.4594 269.506 51.649C269.401 51.8387 269.339 52.0485 269.323 52.2643C269.307 52.4802 269.337 52.6969 269.412 52.9C270.793 55.2721 272.473 57.4567 274.412 59.4C276.109 61.241 277.948 62.9463 279.912 64.5C280.115 64.5749 280.332 64.6053 280.548 64.5891C280.763 64.5729 280.973 64.5106 281.163 64.4063C281.353 64.302 281.518 64.1582 281.647 63.9845C281.776 63.8109 281.866 63.6116 281.912 63.4C282.212 62.5 281.512 61.9 280.712 61.1C280.712 61.1 279.612 59.7 277.012 57C274.312 54.2 272.612 52 272.612 52C272.012 51.2 271.512 50.7 270.712 50.9Z" fill="#283575"/>
<path d="M280.712 51.5C280.812 51.5 280.812 51.5 280.912 51.6C281.305 51.791 281.608 52.1274 281.757 52.538C281.907 52.9486 281.89 53.4012 281.712 53.8C280.111 56.0675 278.152 58.0601 275.912 59.7C273.921 61.2736 271.693 62.5224 269.312 63.4C269.101 63.4288 268.887 63.4153 268.682 63.3601C268.477 63.305 268.285 63.2094 268.117 63.079C267.95 62.9485 267.81 62.7859 267.706 62.6006C267.602 62.4153 267.536 62.2111 267.512 62C267.412 61.1 268.012 60.8 268.912 60.2C268.912 60.2 270.512 59 273.612 56.7C275.423 55.3636 277.159 53.9281 278.812 52.4C279.412 51.7 279.912 51.2 280.712 51.5Z" fill="#283575"/>
<path d="M254.212 94.5C254.832 94.8174 255.516 94.9885 256.212 95C259.121 95.1008 261.966 95.8889 264.512 97.3C266.812 98.5 270.712 99 271.512 95.8C271.595 95.4057 271.628 95.0026 271.612 94.6C271.612 90.2 265.312 83.8 259.512 83.3C257.776 83.0852 256.021 83.5169 254.582 84.5128C253.144 85.5087 252.122 86.9991 251.712 88.7C251.412 91.1 252.312 93.5 254.212 94.5Z" fill="#F26F59"/>
<path d="M254.212 94.5C254.832 94.8174 255.516 94.9884 256.212 95C259.121 95.1008 261.966 95.8889 264.512 97.3C266.812 98.5 270.712 99 271.512 95.8C269.212 92.8 265.312 90.1 261.712 89.8C260.119 89.6516 258.522 90.0314 257.167 90.8808C255.811 91.7302 254.773 93.002 254.212 94.5V94.5Z" fill="#EF6EA5"/>
<path d="M392.512 264.8L410.912 392.4H384.712L382.512 374.2L362.812 373.9L363.612 390.1H338.112L329.612 269L392.512 264.8Z" fill="#EA62A3"/>
<path d="M329.612 269L293.612 389L312.612 390.7L317.912 371.1L337.812 371.9L334.712 391.8L363.612 394.6L392.512 264.8L329.612 269Z" fill="#F396BF"/>
<path d="M316.612 341.5L350.312 289.3L364.612 344.2L316.612 341.5Z" fill="#8EA6F4"/>
<path d="M345.812 308.6C345.812 308.6 335.412 319.5 333.912 327.3C332.312 335.1 343.012 339.9 347.912 331.7C353.312 322.6 345.812 308.6 345.812 308.6Z" fill="#E1EAF6"/>
<path d="M33.9119 111C33.9119 111 40.5119 157 52.6119 190.9C64.7119 224.8 87.9119 255.2 87.9119 255.2C87.9119 255.2 58.2119 228.9 39.8119 195C21.4119 161.1 12.1119 118.6 12.1119 118.6L33.9119 111Z" fill="#E1EAF6"/>
<path d="M85.412 280.9C85.412 280.9 120.712 364.9 189.112 365.4C257.612 365.9 280.412 289.7 280.412 289.7C280.412 289.7 271.812 400.3 169.412 393.4C77.512 387.2 85.412 280.9 85.412 280.9Z" fill="#E1EAF6"/>
<path d="M58.512 283.8C58.512 283.8 69.912 328.4 111.112 357.4C152.212 386.4 186.612 393.4 186.612 393.4C186.612 393.4 152.912 397.8 118.412 379.4C76.012 356.9 58.512 283.8 58.512 283.8Z" fill="#E1EAF6"/>
<path d="M271.611 136.998C271.308 137.422 270.973 137.823 270.611 138.198C265.011 144.698 256.911 149.498 241.511 139.898C241.511 139.898 217.411 124.898 208.311 117.298C201.111 111.398 195.111 101.498 197.511 94.498C198.19 92.4832 199.529 90.7566 201.311 89.598C210.611 83.098 213.711 85.698 226.511 93.198C239.311 100.698 263.811 112.598 269.811 117.098C275.811 121.398 277.311 129.998 271.611 136.998Z" fill="#FEC272"/>
<path d="M270.611 138.1C265.011 144.6 256.911 149.4 241.511 139.8C241.511 139.8 217.411 124.8 208.311 117.2C201.111 111.3 195.111 101.4 197.511 94.4C199.611 96.2 201.611 98 203.711 99.5C220.611 112.3 232.411 119.5 247.311 126.8C254.811 130.5 264.411 134.5 270.611 138.1Z" fill="#FBB76C"/>
<path d="M157.812 57.1C158.512 57.9 161.112 60.9 163.912 64.1C167.912 68.7 172.212 73.8 172.212 73.8C172.212 73.8 176.312 76.5 181.412 72.4C186.112 68.6 184.712 64.3 183.112 62.5L175.312 54.8L166.612 46.2C166.612 46.2 162.812 44.1 159.312 47.9C155.712 51.6 156.112 55.1 157.812 57.1Z" fill="#F7A491"/>
<path d="M163.812 64.1C167.812 68.7 172.112 73.8 172.112 73.8C172.112 73.8 176.212 76.5 181.312 72.4C186.012 68.6 184.612 64.3 183.012 62.5L175.212 54.8C171.11 57.4686 167.32 60.5881 163.912 64.1C163.912 64 163.912 64.1 163.812 64.1Z" fill="#F48B77"/>
<path d="M170.709 44.101C170.809 48.901 173.309 51.501 168.609 56.701C163.909 61.901 160.309 61.601 152.809 58.601C145.309 55.601 134.709 45.301 134.509 42.401C134.409 39.601 136.709 40.001 138.209 41.301C139.709 42.601 144.609 46.101 144.609 46.101C142.037 43.1284 139.76 39.9133 137.809 36.501C135.609 32.201 136.209 29.501 138.209 29.801C140.309 30.201 142.809 34.001 145.109 36.401C146.399 37.7331 147.843 38.9079 149.409 39.901C146.38 36.4287 143.638 32.7166 141.209 28.801C138.509 23.901 140.109 22.101 141.309 21.301C142.509 20.501 145.109 23.701 147.009 26.401C148.909 29.101 153.909 34.501 153.909 34.501C151.611 30.9006 149.54 27.16 147.709 23.301C146.009 19.101 146.609 18.401 148.309 17.701C150.009 17.101 152.409 19.301 153.909 22.301C155.509 25.201 157.409 29.501 159.609 32.601C160.592 34.1142 161.769 35.4925 163.109 36.701C163.109 36.701 163.209 30.101 165.809 27.601C168.409 25.101 170.109 28.601 170.009 30.801C170.009 33.301 170.609 41.501 170.709 44.101Z" fill="#F7A491"/>
<path d="M162.812 51.8C162.812 51.8 159.112 50.5 155.412 49.6C152.864 48.9126 150.248 48.5102 147.612 48.4C147.612 48.4 149.812 45.3 152.512 41.9C154.152 39.9014 156.072 38.15 158.212 36.7C158.212 36.7 159.012 41.3 160.212 46C160.741 48.0677 161.62 50.0295 162.812 51.8Z" fill="#F48B77"/>
<path d="M225.611 112.5C225.233 113.076 224.798 113.612 224.311 114.1C216.811 122.6 207.911 117.3 197.611 109.2C186.711 100.7 169.811 80.3 167.711 76.9C165.611 73.4 162.911 70.6 164.911 68.1C166.216 66.5439 167.655 65.1051 169.211 63.8C174.311 59.4 181.011 55.2 182.511 56.2C184.611 57.6 211.411 82.8 217.811 87.2C224.211 91.4 233.411 101.8 225.611 112.5Z" fill="#FEC272"/>
<path d="M224.411 114.1C216.911 122.6 208.011 117.3 197.711 109.2C186.811 100.7 169.911 80.3 167.811 76.9C165.711 73.4 163.011 70.6 165.011 68.1C166.316 66.5439 167.755 65.1051 169.311 63.8C175.211 71.2 190.411 89.6 203.711 99.6C211.411 105.4 218.011 110 224.411 114.1Z" fill="#FBB76C"/>
<path d="M348.211 138.3C348.22 139.308 348.12 140.314 347.911 141.3C346.411 149.9 339.511 150.9 325.911 153.8C310.911 157.1 291.511 161.8 280.311 161.6C272.711 161.5 264.811 156.9 260.911 148.1C258.813 143.253 257.954 137.961 258.411 132.7C259.111 119 269.111 114.5 279.311 115.4C279.311 115.4 310.611 122.2 323.911 123.2C337.811 124.3 348.511 126.9 348.211 138.3Z" fill="#FEC272"/>
<path d="M347.911 141.3C346.411 149.9 339.511 150.9 325.911 153.8C310.911 157.1 291.511 161.8 280.311 161.6C272.711 161.5 264.811 156.9 260.911 148.1C268.811 148.5 286.611 148.5 322.711 144.5C332.211 143.4 340.611 142.4 347.911 141.3Z" fill="#FBB76C"/>
<path d="M393.512 138.4C392.412 138.6 388.512 139.1 384.312 139.8C378.312 140.7 371.712 141.7 371.712 141.7C371.712 141.7 366.812 141.1 365.612 134.7C364.512 128.8 368.412 126.4 370.812 126L381.812 125.2L394.012 124.3C394.012 124.3 398.212 125.2 398.412 130.4C398.712 135.6 396.112 138 393.512 138.4Z" fill="#F7A491"/>
<path d="M384.312 139.8C378.312 140.7 371.712 141.7 371.712 141.7C371.712 141.7 366.812 141.1 365.612 134.7C364.512 128.8 368.412 126.4 370.812 126L381.812 125.2C383.183 129.891 384.021 134.721 384.312 139.6V139.8Z" fill="#F48B77"/>
<path d="M392.41 121.8C389.21 125.3 385.61 125.7 385.71 132.7C385.81 139.7 388.81 141.8 396.51 144.4C404.11 147 418.91 146.1 420.91 144C422.81 141.9 420.81 140.8 418.81 140.8C416.91 140.8 410.81 140.3 410.81 140.3C410.81 140.3 417.81 139.3 422.21 137.4C426.61 135.6 428.01 133.1 426.21 132.1C424.41 131.1 420.01 132.4 416.61 132.6C414.746 132.794 412.866 132.76 411.01 132.5C415.587 131.836 420.102 130.799 424.51 129.4C429.71 127.5 429.71 125 429.31 123.7C428.91 122.4 424.91 123.1 421.71 123.8C418.51 124.5 411.21 125.4 411.21 125.4C411.21 125.4 419.21 123 423.21 120.9C427.21 118.8 427.31 117.9 426.41 116.3C425.51 114.7 422.31 114.9 419.11 116.1C416.01 117.3 411.81 119.3 408.01 120.2C406.245 120.681 404.436 120.982 402.61 121.1C402.61 121.1 406.81 116 406.51 112.5C406.21 109 402.61 110.4 401.21 112.2C399.91 114.1 394.11 119.9 392.41 121.8Z" fill="#F7A491"/>
<path d="M393.312 132.7C393.312 132.7 397.012 134.1 400.412 135.8C402.798 136.94 405.046 138.349 407.112 140C407.112 140 407.512 136.2 407.612 131.9C407.677 129.337 407.374 126.777 406.712 124.3C406.712 124.3 403.112 127.3 399.112 130C397.345 131.222 395.384 132.135 393.312 132.7V132.7Z" fill="#F48B77"/>
<path d="M380.112 133.2V135.7C379.812 142.5 377.712 143.7 376.612 145.1C375.412 146.7 341.312 151.7 332.112 153C323.712 154.2 315.012 153.4 311.712 145.6C311.371 144.827 311.103 144.023 310.912 143.2C308.612 133.1 312.112 123.1 322.612 122.8C332.712 122.6 372.312 120.2 373.912 120.2C375.712 120.2 380.012 124.1 380.112 133.2Z" fill="#FEC272"/>
<path d="M380.112 135.7C379.812 142.5 377.712 143.7 376.612 145.1C375.412 146.7 341.312 151.7 332.112 153C323.712 154.2 315.012 153.4 311.712 145.6C315.112 145.3 318.712 144.9 322.512 144.5C352.112 141.2 369.812 137.9 380.112 135.7Z" fill="#FBB76C"/>
<path d="M161.113 151.201C161.113 151.201 151.113 156.901 156.313 171.401C161.513 185.901 182.913 219.801 197.113 219.101C211.313 218.401 217.813 205.601 206.113 180.001C194.413 154.401 168.113 149.701 161.113 151.201Z" fill="#F9A554"/>
<path d="M228.012 219.7C228.012 219.7 225.112 222.8 214.812 228.5C211.828 230.134 208.757 231.603 205.612 232.9C202.489 234.25 199.24 235.289 195.912 236C196.112 235.6 202.412 225 192.012 201.5C181.412 177.6 168.412 175.1 168.412 175.1L178.712 170.7L194.912 163.7C236.612 172.2 228.012 219.7 228.012 219.7Z" fill="#F7A491"/>
<path d="M228.012 219.7C228.012 219.7 225.112 222.8 214.812 228.5C211.828 230.134 208.757 231.603 205.612 232.9C206.812 226.9 207.012 215 198.212 196.6C191.512 182.6 184.212 174.9 178.712 170.7L194.912 163.7C236.612 172.2 228.012 219.7 228.012 219.7Z" fill="#F48B77"/>
<path d="M277.312 184.9C261.512 211.4 233.512 237.8 227.512 240.4C221.512 243 216.312 242 214.312 233.4C213.512 229.9 212.312 222.5 210.112 213.7C206.812 200.6 201.212 184.3 191.012 173C173.912 154.1 158.812 153.8 161.212 151.2C163.512 148.6 174.912 152.5 194.912 145.8C214.912 139.1 227.912 127.3 239.512 116.8C242.808 113.869 246.803 111.837 251.112 110.9C262.812 108.2 276.812 112.4 285.512 119.4C289.712 122.8 292.612 126.8 293.512 131C294.012 133.5 294.412 135.8 294.712 137.9C296.312 149.7 293.712 157.4 277.312 184.9Z" fill="#FEC272"/>
<path d="M285.412 119.4C279.512 121.7 270.912 122.9 260.412 121C248.312 118.8 248.312 114.5 251.112 110.9C262.812 108.2 276.812 112.4 285.412 119.4Z" fill="#FBB76C"/>
<path d="M277.312 184.901C261.512 211.401 233.512 237.801 227.512 240.401C221.512 243.001 216.312 242.001 214.312 233.401C213.512 229.901 212.312 222.501 210.112 213.701C222.712 207.701 241.812 196.901 255.612 180.801C277.912 154.901 285.812 132.001 294.512 137.801C294.612 137.801 294.612 137.901 294.712 138.001C296.312 149.701 293.712 157.401 277.312 184.901Z" fill="#FBB76C"/>
<path d="M203.711 219.7C201.911 235.9 191.511 238.6 175.411 246.4C159.111 254.3 150.211 263.8 140.111 275.7C135.311 281.3 130.911 286.2 126.711 289C122.111 292.1 117.811 292.7 113.911 289C106.411 282 102.111 267.3 115.211 237.9C118.173 231.035 121.79 224.471 126.011 218.3C135.911 203.9 146.211 197.8 155.911 192.6C188.011 175.5 206.011 198.7 203.711 219.7Z" fill="#E1ECFF"/>
<path d="M203.711 219.699C201.911 235.899 191.511 238.599 175.411 246.399C159.111 254.299 150.211 263.799 140.111 275.699C135.311 281.299 130.911 286.199 126.711 288.999C129.011 265.699 148.611 240.999 148.611 240.999C142.712 237.698 137.35 233.516 132.711 228.599C129.982 225.531 127.694 222.098 125.911 218.399C135.811 203.999 146.111 197.899 155.811 192.699C188.011 175.499 206.011 198.699 203.711 219.699Z" fill="#D0E0F1"/>
<path d="M123.011 362.301C105.311 382.301 93.111 377.401 92.311 369.701V369.101C91.711 361.601 95.011 354.301 99.811 344.701C104.711 334.801 111.211 326.701 119.611 325.401C125.111 324.601 129.011 325.701 131.611 328.801C133.229 330.867 134.295 333.31 134.711 335.901C136.211 343.001 134.011 349.901 123.011 362.301Z" fill="#9DABD7"/>
<path d="M120.311 356.801C107.111 371.701 97.011 372.801 92.311 369.201C91.711 361.701 95.011 354.401 99.811 344.801C104.711 334.901 111.211 326.801 119.611 325.501C125.111 324.701 129.011 325.801 131.611 328.901C131.711 329.401 131.911 329.901 132.011 330.501C133.511 337.501 131.211 344.301 120.311 356.801Z" fill="#273675"/>
<path d="M122.912 345.401C110.912 356.401 102.712 353.701 102.112 349.501V349.201C101.712 345.101 103.912 341.101 107.212 335.901C110.512 330.501 114.912 326.001 120.612 325.301C124.312 324.901 127.012 325.501 128.712 327.101C129.757 328.183 130.484 329.533 130.812 331.001C131.912 334.801 130.412 338.501 122.912 345.401Z" fill="#212E60"/>
<path d="M138.311 281.1C135.511 297.4 131.711 331.7 131.711 331.7C130.57 333.772 129.002 335.579 127.111 337C124.994 338.543 122.43 339.351 119.811 339.3C111.811 339.1 109.911 334.3 109.911 334.3C109.911 334.3 106.411 303.3 106.411 280.1C106.411 256.9 112.511 248.7 119.611 249.2C129.211 250 134.811 252.8 137.511 258C140.211 263.2 140.111 270.8 138.311 281.1Z" fill="#E1ECFF"/>
<path d="M138.311 281.1C135.511 297.4 131.711 331.7 131.711 331.7C130.57 333.772 129.002 335.579 127.111 337C126.711 325.8 126.511 308.2 128.211 292.8C129.811 278.3 132.211 267.8 137.511 258.1C140.211 263.2 140.111 270.8 138.311 281.1Z" fill="#D0E0F1"/>
<path d="M108.211 270.097C108.228 269.391 108.407 268.699 108.735 268.074C109.063 267.449 109.53 266.907 110.1 266.492C110.671 266.076 111.329 265.797 112.025 265.677C112.72 265.556 113.434 265.597 114.111 265.797C115.653 266.212 117.224 266.512 118.811 266.697C120.474 266.827 122.144 266.86 123.811 266.797C124.457 266.788 125.097 266.913 125.692 267.165C126.286 267.417 126.821 267.79 127.264 268.26C127.706 268.731 128.045 269.288 128.26 269.897C128.475 270.506 128.56 271.153 128.511 271.797L127.111 290.497C127.034 291.562 126.596 292.569 125.868 293.352C125.141 294.134 124.168 294.644 123.111 294.797C121.018 295.048 118.903 295.048 116.811 294.797C114.253 294.273 111.834 293.217 109.711 291.697C109.062 291.259 108.536 290.66 108.186 289.959C107.836 289.259 107.672 288.479 107.711 287.697L108.211 270.097Z" fill="#C4DCF2"/>
<path d="M205.612 232.9C199.483 235.951 192.833 237.817 186.012 238.4C174.312 239.4 155.912 235.5 145.312 225.4C134.712 215.3 119.412 188.1 108.012 173.8C96.612 159.5 88.012 152.7 93.412 143.1C93.7865 142.397 94.2214 141.728 94.712 141.1C104.012 129.6 128.212 138.6 145.712 155.3C159.712 168.6 191.712 185 202.712 206.3C203.718 208.154 204.555 210.095 205.212 212.1C209.812 224.8 205.612 232.9 205.612 232.9Z" fill="#E1ECFF"/>
<path d="M205.612 232.9C199.483 235.951 192.833 237.817 186.012 238.4C174.312 239.4 155.912 235.5 145.312 225.4C134.712 215.3 119.412 188.1 108.012 173.8C96.612 159.5 88.012 152.7 93.412 143.1C93.7865 142.397 94.2214 141.728 94.712 141.1L128.512 173C128.512 173 142.012 186 159.612 206.2C173.912 222.6 197.112 215.5 205.412 212.2C209.812 224.8 205.612 232.9 205.612 232.9Z" fill="#D0E0F1"/>
<path d="M40.912 158.301L39.812 137.001L63.112 136.401C64.4616 137.784 65.5129 139.43 66.2009 141.236C66.8889 143.042 67.199 144.97 67.112 146.901C66.6752 151.192 65.2736 155.328 63.012 159.001L40.912 158.301Z" fill="#F48B77"/>
<path d="M136.812 169.001C135.33 171.386 133.013 173.133 130.312 173.901C122.412 176.201 111.312 169.901 97.712 167.401C78.512 163.901 51.712 160.701 51.712 160.701C52.4735 157.557 52.8761 154.336 52.912 151.101C52.9212 149.194 52.7875 147.288 52.512 145.401C51.212 136.401 46.912 132.101 46.912 132.101C46.912 132.101 74.112 127.601 99.712 131.601C104.98 132.361 110.168 133.599 115.212 135.301C121.067 137.24 126.474 140.335 131.112 144.401C139.112 151.901 141.912 161.401 136.812 169.001Z" fill="#E1ECFF"/>
<path d="M130.312 174.001C122.412 176.301 111.312 170.001 97.712 167.501C78.512 164.001 51.712 160.801 51.712 160.801C52.4736 157.657 52.8762 154.436 52.912 151.201C63.412 152.501 104.912 158.201 120.512 167.001C124.024 168.971 127.31 171.318 130.312 174.001Z" fill="#D0E0F1"/>
<path d="M131.012 144.401C130.912 145.001 130.712 145.701 130.612 146.301C129.685 149.363 128.117 152.192 126.012 154.601C125.428 155.318 124.673 155.877 123.817 156.226C122.961 156.576 122.031 156.705 121.112 156.601L100.812 153.601C97.312 153.101 95.212 149.201 96.512 145.701C97.268 143.871 97.8051 141.957 98.112 140.001C98.4872 138.017 98.7543 136.014 98.912 134.001C98.9775 133.161 99.2159 132.344 99.612 131.601C104.88 132.361 110.068 133.599 115.112 135.301C120.988 137.194 126.404 140.293 131.012 144.401Z" fill="#C4DCF2"/>
<path d="M37.712 163.7L36.812 164C29.212 166.3 24.412 163 19.712 157C15.012 151 5.71198 130.2 2.41198 120.9C-0.888022 111.6 -2.58802 100.5 9.51198 97.2C10.5902 96.8948 11.6953 96.6939 12.812 96.6C24.812 95.3 41.312 103.7 46.512 129.5C51.912 156.4 43.412 161.8 37.712 163.7Z" fill="#273675"/>
<path d="M37.712 163.7L36.812 164C35.0006 164.559 33.1052 164.795 31.212 164.7C26.612 164.3 23.112 161.4 19.712 157C15.012 151 5.71203 130.2 2.41203 120.9C0.112027 114.4 -1.38797 107 2.01203 102.1C3.87528 99.6738 6.52848 97.9758 9.51203 97.3C10.5903 96.9949 11.6954 96.7939 12.812 96.7C18.612 99.2 26.312 105.8 33.312 122.2C42.112 142.2 40.112 156.2 37.712 163.7Z" fill="#9DABD7"/>
<path d="M31.212 164.6C26.612 164.2 23.112 161.3 19.712 156.9C15.012 150.9 5.71203 130.1 2.41203 120.8C0.112027 114.3 -1.38797 106.9 2.01203 102C4.11203 100.3 7.51203 98.9 12.312 101.9C20.612 107.1 32.012 130.9 33.712 144.6C35.712 160.8 34.112 163.1 31.212 164.6Z" fill="#8096CC"/>
<path d="M292.212 0L290.512 20.4C290.512 20.4 299.712 21.2 309.212 31.5C314.775 37.4886 318.188 45.1581 318.912 53.3L347.512 47.1C347.512 47.1 330.312 44.7 324.312 35.4C318.312 26.1 334.312 2 334.312 2C334.312 2 316.512 14.8 307.512 15.3C298.412 15.7 292.212 0 292.212 0Z" fill="#C4DCF2"/>
</g>
<defs>
<clipPath id="clip0_0_1385">
<rect width="437.012" height="417.512" fill="white" transform="translate(0.000244141)"/>
</clipPath>
</defs>
</svg>
