<svg width="450" height="268" viewBox="0 0 450 268" fill="none" xmlns="http://www.w3.org/2000/svg">
<g clip-path="url(#clip0_0_1508)">
<path opacity="0.53" d="M41.0991 111.44C46.9171 106.491 67.1651 106.976 79.0091 106.976C90.8531 106.976 114.217 107.5 120.646 115.643C127.075 123.786 109.224 132.463 81.5911 132.463C53.9581 132.463 23.8111 126.147 41.0991 111.44Z" fill="#99ADF9"/>
<path d="M367.539 135.343C367.539 135.343 410.16 136.254 425.532 138.843C440.904 141.432 460.468 160.317 443.349 180.196C426.23 200.075 400.883 197.758 329.032 197.758C341.337 158.334 367.539 135.343 367.539 135.343Z" fill="#99ADF9"/>
<path d="M95.2691 144.577C95.2691 144.577 71.4311 140.67 38.4501 145.663C18.1881 148.732 -1.72095 159.546 0.118054 175.023C2.80605 197.705 56.9911 189.081 71.4451 201.582C85.8991 214.083 54.4001 217.734 45.5641 230.823C36.7281 243.912 44.764 261.672 86.0461 264.372C127.328 267.072 255.591 268.449 285.223 264.736C314.855 261.023 333.056 226.355 285.873 207.712C212.2 192.717 95.2691 144.577 95.2691 144.577Z" fill="#99ADF9"/>
<path d="M388.719 153.458C388.719 191.718 331.74 222.737 225.619 222.737C119.498 222.737 65.501 191.713 65.501 153.458C65.501 115.203 119.535 84.179 225.623 84.179C331.711 84.179 388.719 115.197 388.719 153.458Z" fill="#F0F6FF"/>
<path opacity="0.36" d="M153.33 120.549C153.33 120.549 95.0412 126.415 90.8492 204.239C113.907 245.417 204.739 235.65 204.739 235.65C204.739 235.65 201.299 156.759 232.493 113.768C297.318 115.862 343.433 115.222 360.901 202.475C396.535 184.326 399.277 144.825 399.277 144.825C399.277 144.825 381.809 88.983 356.306 82.701C330.803 76.419 289.579 84.101 289.579 84.101L153.33 120.549Z" fill="#FF97C9"/>
<g style="mix-blend-mode:multiply" opacity="0.64">
<path d="M338.193 125.307C338.193 144.032 299.026 159.214 226.108 159.214C153.19 159.214 116.027 144.035 116.027 125.307C116.027 106.579 153.17 91.407 226.108 91.407C299.046 91.407 338.193 106.594 338.193 125.307Z" fill="#E1ECFF"/>
</g>
<path d="M276.464 130.348C276.464 130.348 283.606 138.414 284.538 144.929C285.47 151.444 284.693 159.507 292.301 162.148C299.909 164.789 319.958 166.336 326.15 158.425C332.342 150.514 328.169 137.795 316.989 128.177C307.998 120.202 296.783 115.167 284.849 113.748L276.464 130.348Z" fill="#FEC272"/>
<g style="mix-blend-mode:multiply" opacity="0.45">
<path d="M274.232 145.925C274.232 145.925 306.256 143.453 305.528 109.618C298.412 109.924 291.439 111.712 285.054 114.866C278.668 118.02 273.011 122.471 268.443 127.936L274.232 145.925Z" fill="#FEC272"/>
</g>
<path d="M169.726 130.348C169.726 130.348 176.868 138.414 177.8 144.929C178.732 151.444 177.955 159.507 185.563 162.148C193.171 164.789 213.22 166.336 219.412 158.425C225.604 150.514 221.431 137.795 210.251 128.177C201.26 120.201 190.045 115.167 178.111 113.748L169.726 130.348Z" fill="#FEC272"/>
<g style="mix-blend-mode:multiply" opacity="0.45">
<path d="M177.116 121.572C177.116 121.572 193.706 149.052 223.643 133.206C220.169 126.989 215.436 121.566 209.748 117.281C204.059 112.997 197.539 109.946 190.605 108.324L177.116 121.572Z" fill="#FEC272"/>
</g>
<path d="M263.815 11.7009C268.182 11.8459 282.064 10.8329 287.858 27.9009C293.652 44.9689 298.14 57.4209 305.958 68.5609C313.776 79.7009 321.747 99.9609 305.958 114.126C300.26 119.332 293.146 122.731 285.516 123.891C277.885 125.052 270.082 123.923 263.094 120.646C254.552 116.448 244.406 109.501 246.871 85.7829C249.336 62.0649 256.871 47.5829 257.735 34.5609C258.599 21.5389 259.933 17.2009 263.815 11.7009Z" fill="#FF8D76"/>
<path d="M223.056 0.0679724C245.72 -0.853028 264.14 7.74597 272.52 19.147C280.9 30.548 285.8 58.236 286.848 66.5C287.896 74.764 291.623 79.181 295.582 84.649C299.828 90.514 307.111 108.614 299.308 120.713C291.505 132.812 278.793 135.913 265.27 129.283C251.645 134.615 240.07 137.349 218.058 133.646C196.046 129.943 174.92 111.271 169.537 73.767C166.432 52.051 166.393 25.526 176.82 11.721C194.201 6.96097 201.6 0.920972 223.056 0.0679724Z" fill="#FEC272"/>
<path d="M176.868 11.7009C172.21 11.8559 157.304 10.7699 151.093 29.0739C144.882 47.3779 140.084 60.7179 131.685 72.6609C123.286 84.6039 114.761 106.321 131.685 121.522C137.795 127.104 145.424 130.747 153.605 131.989C161.787 133.232 170.154 132.018 177.645 128.502C186.806 124.002 197.675 116.558 195.035 91.1189C192.395 65.6799 184.321 50.1699 183.39 36.2089C182.459 22.2479 181.06 17.5949 176.868 11.7009Z" fill="#FF8D76"/>
<path d="M224.361 77.6249C227.834 77.6249 230.649 74.8124 230.649 71.3429C230.649 67.8735 227.834 65.0609 224.361 65.0609C220.888 65.0609 218.073 67.8735 218.073 71.3429C218.073 74.8124 220.888 77.6249 224.361 77.6249Z" fill="#1C3177"/>
<path d="M275.445 77.6249C278.918 77.6249 281.733 74.8124 281.733 71.3429C281.733 67.8735 278.918 65.0609 275.445 65.0609C271.972 65.0609 269.157 67.8735 269.157 71.3429C269.157 74.8124 271.972 77.6249 275.445 77.6249Z" fill="#1C3177"/>
<path d="M214.516 55.39C214.031 53.112 219.687 50.31 222.571 48.206C225.455 46.102 229.796 45.298 232.081 49.137C234.366 52.976 226.535 56.587 223.648 57.203C220.761 57.819 215.031 57.887 214.516 55.39Z" fill="#FF8D76"/>
<path d="M281.729 54.538C281.918 52.438 276.984 50.219 274.407 48.474C271.83 46.729 268.152 46.243 266.59 49.87C265.028 53.497 271.85 56.322 274.3 56.719C276.75 57.116 281.52 56.843 281.729 54.538Z" fill="#FF8D76"/>
<path d="M254.93 91.972C255.376 89.354 273.853 88.482 275.445 91.972C277.037 95.462 272.045 104.42 266.925 104.42C261.805 104.42 253.765 98.838 254.93 91.972Z" fill="#1C3177"/>
<path d="M267.414 96.976C267.606 101.95 267.378 106.931 266.735 111.867" stroke="#1C3177" stroke-width="3.397" stroke-miterlimit="10" stroke-linecap="round"/>
<g style="mix-blend-mode:multiply">
<path d="M195.821 162.163C195.821 162.163 197.995 156.346 195.336 151.116" stroke="#FEC272" stroke-width="3.397" stroke-miterlimit="10" stroke-linecap="round"/>
</g>
<g style="mix-blend-mode:multiply">
<path d="M212.973 161C213.701 157.653 213.237 154.158 211.663 151.116" stroke="#FEC272" stroke-width="3.397" stroke-miterlimit="10" stroke-linecap="round"/>
</g>
<g style="mix-blend-mode:multiply">
<path d="M302.559 162.163C302.559 162.163 304.733 156.346 302.074 151.116" stroke="#FEC272" stroke-width="3.397" stroke-miterlimit="10" stroke-linecap="round"/>
</g>
<g style="mix-blend-mode:multiply">
<path d="M319.711 161C320.442 157.654 319.98 154.158 318.406 151.116" stroke="#FEC272" stroke-width="3.397" stroke-miterlimit="10" stroke-linecap="round"/>
</g>
<path opacity="0.53" d="M348.63 221.383C354.455 216.429 374.691 216.914 386.54 216.914C398.389 216.914 421.747 217.442 428.176 225.586C434.605 233.73 416.755 242.401 389.121 242.401C361.487 242.401 331.361 236.09 348.63 221.383Z" fill="#99ADF9"/>
</g>
<defs>
<clipPath id="clip0_0_1508">
<rect width="450" height="267.002" fill="white" transform="translate(-0.000244141 0.000366211)"/>
</clipPath>
</defs>
</svg>
